# Blender v2.78 (sub 0) OBJ File: 'Chap01_04.blend'
# www.blender.org
mtllib button.mtl
o Cylinder_Cylinder.006
v 1.719270 0.828504 -0.155067
v 1.769270 0.915107 -0.155067
v 1.727718 0.823627 -0.154107
v 1.777718 0.910230 -0.154107
v 1.735841 0.818937 -0.151261
v 1.785841 0.905540 -0.151261
v 1.743327 0.814615 -0.146641
v 1.793327 0.901218 -0.146641
v 1.749889 0.810827 -0.140423
v 1.799889 0.897429 -0.140423
v 1.755274 0.807718 -0.132846
v 1.805274 0.894320 -0.132846
v 1.759275 0.805407 -0.124202
v 1.809275 0.892010 -0.124202
v 1.761739 0.803985 -0.114822
v 1.811739 0.890587 -0.114822
v 1.762571 0.803504 -0.105067
v 1.812571 0.890107 -0.105067
v 1.761739 0.803985 -0.095313
v 1.811739 0.890587 -0.095313
v 1.759275 0.805407 -0.085933
v 1.809275 0.892010 -0.085933
v 1.755274 0.807718 -0.077289
v 1.805274 0.894320 -0.077289
v 1.749889 0.810827 -0.069712
v 1.799889 0.897429 -0.069712
v 1.743327 0.814615 -0.063494
v 1.793327 0.901218 -0.063494
v 1.735841 0.818937 -0.058873
v 1.785841 0.905540 -0.058873
v 1.727718 0.823627 -0.056028
v 1.777718 0.910230 -0.056028
v 1.719270 0.828504 -0.055067
v 1.769270 0.915107 -0.055067
v 1.710822 0.833382 -0.056028
v 1.760822 0.919984 -0.056028
v 1.702699 0.838071 -0.058873
v 1.752699 0.924674 -0.058873
v 1.695213 0.842394 -0.063494
v 1.745213 0.928996 -0.063494
v 1.688651 0.846182 -0.069712
v 1.738651 0.932784 -0.069712
v 1.683266 0.849291 -0.077289
v 1.733266 0.935894 -0.077289
v 1.679265 0.851601 -0.085933
v 1.729265 0.938204 -0.085933
v 1.676801 0.853024 -0.095313
v 1.726801 0.939626 -0.095313
v 1.675969 0.853504 -0.105067
v 1.725969 0.940107 -0.105067
v 1.676801 0.853024 -0.114822
v 1.726801 0.939626 -0.114822
v 1.679265 0.851601 -0.124202
v 1.729265 0.938204 -0.124202
v 1.683266 0.849291 -0.132846
v 1.733266 0.935894 -0.132846
v 1.688652 0.846182 -0.140423
v 1.738652 0.932784 -0.140423
v 1.695213 0.842394 -0.146641
v 1.745213 0.928996 -0.146641
v 1.702699 0.838071 -0.151261
v 1.752699 0.924674 -0.151261
v 1.710822 0.833381 -0.154107
v 1.760823 0.919984 -0.154107
vn 0.0849 -0.0490 -0.9952
vn 0.2514 -0.1451 -0.9569
vn 0.4082 -0.2357 -0.8819
vn 0.5494 -0.3172 -0.7730
vn 0.6694 -0.3865 -0.6344
vn 0.7638 -0.4410 -0.4714
vn 0.8287 -0.4785 -0.2903
vn 0.8619 -0.4976 -0.0980
vn 0.8619 -0.4976 0.0980
vn 0.8287 -0.4785 0.2903
vn 0.7638 -0.4410 0.4714
vn 0.6694 -0.3865 0.6344
vn 0.5494 -0.3172 0.7730
vn 0.4082 -0.2357 0.8819
vn 0.2514 -0.1451 0.9569
vn 0.0849 -0.0490 0.9952
vn -0.0849 0.0490 0.9952
vn -0.2514 0.1451 0.9569
vn -0.4082 0.2357 0.8819
vn -0.5494 0.3172 0.7730
vn -0.6694 0.3865 0.6344
vn -0.7638 0.4410 0.4714
vn -0.8287 0.4785 0.2903
vn -0.8619 0.4976 0.0980
vn -0.8619 0.4976 -0.0980
vn -0.8287 0.4785 -0.2903
vn -0.7638 0.4410 -0.4714
vn -0.6694 0.3865 -0.6344
vn -0.5494 0.3172 -0.7730
vn -0.4082 0.2357 -0.8819
vn 0.5000 0.8660 0.0000
vn -0.2514 0.1451 -0.9569
vn -0.0849 0.0490 -0.9952
vn -0.5000 -0.8660 0.0000
vn 0.4999 0.8661 -0.0000
vn 0.5001 0.8660 0.0000
vn -0.5000 -0.8660 -0.0001
vn -0.5001 -0.8660 0.0000
vn -0.4999 -0.8661 0.0000
vn -0.5002 -0.8659 0.0000
vn -0.5000 -0.8660 0.0001
usemtl None
s off
f 2//1 3//1 1//1
f 4//2 5//2 3//2
f 6//3 7//3 5//3
f 7//4 10//4 9//4
f 9//5 12//5 11//5
f 11//6 14//6 13//6
f 14//7 15//7 13//7
f 16//8 17//8 15//8
f 18//9 19//9 17//9
f 19//10 22//10 21//10
f 21//11 24//11 23//11
f 24//12 25//12 23//12
f 25//13 28//13 27//13
f 28//14 29//14 27//14
f 30//15 31//15 29//15
f 32//16 33//16 31//16
f 34//17 35//17 33//17
f 36//18 37//18 35//18
f 38//19 39//19 37//19
f 40//20 41//20 39//20
f 41//21 44//21 43//21
f 44//22 45//22 43//22
f 45//23 48//23 47//23
f 47//24 50//24 49//24
f 49//25 52//25 51//25
f 52//26 53//26 51//26
f 54//27 55//27 53//27
f 55//28 58//28 57//28
f 57//29 60//29 59//29
f 60//30 61//30 59//30
f 38//31 22//31 6//31
f 62//32 63//32 61//32
f 64//33 1//33 63//33
f 31//34 47//34 63//34
f 2//1 4//1 3//1
f 4//2 6//2 5//2
f 6//3 8//3 7//3
f 7//4 8//4 10//4
f 9//5 10//5 12//5
f 11//6 12//6 14//6
f 14//7 16//7 15//7
f 16//8 18//8 17//8
f 18//9 20//9 19//9
f 19//10 20//10 22//10
f 21//11 22//11 24//11
f 24//12 26//12 25//12
f 25//13 26//13 28//13
f 28//14 30//14 29//14
f 30//15 32//15 31//15
f 32//16 34//16 33//16
f 34//17 36//17 35//17
f 36//18 38//18 37//18
f 38//19 40//19 39//19
f 40//20 42//20 41//20
f 41//21 42//21 44//21
f 44//22 46//22 45//22
f 45//23 46//23 48//23
f 47//24 48//24 50//24
f 49//25 50//25 52//25
f 52//26 54//26 53//26
f 54//27 56//27 55//27
f 55//28 56//28 58//28
f 57//29 58//29 60//29
f 60//30 62//30 61//30
f 6//31 4//31 62//31
f 2//31 64//31 62//31
f 62//31 60//31 58//31
f 58//31 56//31 54//31
f 54//35 52//35 50//35
f 50//31 48//31 46//31
f 46//31 44//31 42//31
f 42//35 40//35 46//35
f 38//31 36//31 34//31
f 34//31 32//31 30//31
f 30//36 28//36 26//36
f 26//31 24//31 30//31
f 22//31 20//31 14//31
f 18//36 16//36 14//36
f 14//31 12//31 6//31
f 10//36 8//36 6//36
f 4//31 2//31 62//31
f 62//31 58//31 6//31
f 54//31 50//31 46//31
f 46//31 40//31 38//31
f 38//31 34//31 22//31
f 30//31 24//31 22//31
f 20//31 18//31 14//31
f 12//35 10//35 6//35
f 6//31 58//31 54//31
f 54//31 46//31 6//31
f 34//31 30//31 22//31
f 22//31 14//31 6//31
f 6//31 46//31 38//31
f 62//32 64//32 63//32
f 64//33 2//33 1//33
f 63//37 1//37 7//37
f 3//34 5//34 7//34
f 7//38 9//38 11//38
f 11//39 13//39 7//39
f 15//40 17//40 19//40
f 19//39 21//39 15//39
f 23//38 25//38 27//38
f 27//41 29//41 31//41
f 31//37 33//37 35//37
f 35//34 37//34 39//34
f 39//34 41//34 47//34
f 43//34 45//34 47//34
f 47//39 49//39 51//39
f 51//39 53//39 55//39
f 55//34 57//34 63//34
f 59//34 61//34 63//34
f 1//41 3//41 7//41
f 7//34 13//34 15//34
f 15//34 21//34 23//34
f 23//34 27//34 15//34
f 31//34 35//34 39//34
f 41//34 43//34 47//34
f 47//34 51//34 63//34
f 57//34 59//34 63//34
f 63//34 7//34 31//34
f 15//34 27//34 31//34
f 31//34 39//34 47//34
f 51//34 55//34 63//34
f 7//34 15//34 31//34
